<?xml version="1.0" encoding="UTF-8" standalone="no"?>
<!-- Created with Inkscape (http://www.inkscape.org/) -->

<svg
   width="206.07384"
   height="898.80707"
   viewBox="0 0 206.07384 898.80707"
   version="1.1"
   id="svg1"
   xmlns="http://www.w3.org/2000/svg"
   xmlns:svg="http://www.w3.org/2000/svg">
  <defs
     id="defs1" />
  <rect
     style="fill:#cee8ff;fill-opacity:0.606061;stroke:none;stroke-width:0.697736;stroke-dasharray:none;stroke-opacity:1"
     id="rect131"
     width="103.02965"
     height="102.94411"
     x="-50.324524"
     y="53.427174"
     transform="matrix(0.68120802,-0.7320899,0.69168842,0.72219605,0,0)" />
  <rect
     style="fill:#cee8ff;fill-opacity:0.607843;stroke:none;stroke-width:0.697736;stroke-dasharray:none;stroke-opacity:1"
     id="rect131-7"
     width="103.02965"
     height="102.94411"
     x="-154.16576"
     y="156.39653"
     transform="matrix(0.68120802,-0.7320899,0.69168842,0.72219605,0,0)" />
  <rect
     style="fill:#cee8ff;fill-opacity:0.607843;stroke:none;stroke-width:0.680836;stroke-dasharray:none;stroke-opacity:1"
     id="rect131-7-9"
     width="100.49949"
     height="100.48521"
     x="-263.96262"
     y="260.99057"
     transform="matrix(0.69847215,-0.71563724,0.70873,0.70547982,0,0)" />
  <rect
     style="fill:#cee8ff;fill-opacity:0.607843;stroke:none;stroke-width:0.708066;stroke-dasharray:none;stroke-opacity:1"
     id="rect131-7-9-5"
     width="104.57561"
     height="104.44736"
     x="-356.35889"
     y="350.82022"
     transform="matrix(0.67107294,-0.74139133,0.68166771,0.7316619,0,0)" />
  <rect
     style="fill:#cee8ff;fill-opacity:0.607843;stroke:none;stroke-width:0.708066;stroke-dasharray:none;stroke-opacity:1"
     id="rect131-7-9-5-2"
     width="104.57561"
     height="104.44736"
     x="-460.77936"
     y="454.53757"
     transform="matrix(0.67107294,-0.74139133,0.68166771,0.7316619,0,0)" />
  <rect
     style="fill:#cee8ff;fill-opacity:0.607843;stroke:none;stroke-width:0.694331;stroke-dasharray:none;stroke-opacity:1"
     id="rect131-7-9-5-2-1"
     width="102.51981"
     height="102.4485"
     x="-573.74976"
     y="566.02155"
     transform="matrix(0.68461781,-0.72890223,0.69505703,0.71895461,0,0)" />
  <rect
     style="fill:#18196c;fill-opacity:0.496504;stroke:none;stroke-width:1.355;stroke-dasharray:none;stroke-opacity:1"
     id="rect132"
     width="50"
     height="50"
     x="-18.163843"
     y="199.30998"
     transform="rotate(-46.349837)" />
  <rect
     style="fill:#16186a;fill-opacity:0.498039;stroke:none;stroke-width:1.355;stroke-dasharray:none;stroke-opacity:1"
     id="rect132-1"
     width="50"
     height="50"
     x="-125.63339"
     y="306.95346"
     transform="rotate(-46.349837)" />
  <rect
     style="fill:#16186a;fill-opacity:0.498039;stroke:none;stroke-width:1.355;stroke-dasharray:none;stroke-opacity:1"
     id="rect132-7"
     width="50"
     height="50"
     x="-342.63885"
     y="510.77643"
     transform="rotate(-46.349837)" />
  <rect
     style="fill:#16186a;fill-opacity:0.498039;stroke:none;stroke-width:1.355;stroke-dasharray:none;stroke-opacity:1"
     id="rect132-7-7"
     width="50"
     height="50"
     x="-451.50113"
     y="611.22028"
     transform="rotate(-46.349837)" />
  <rect
     style="fill:#16186a;fill-opacity:0.498039;stroke:none;stroke-width:1.355;stroke-dasharray:none;stroke-opacity:1"
     id="rect132-5"
     width="50"
     height="50"
     x="-228.56761"
     y="403.88824"
     transform="rotate(-46.349837)" />
  <path
     style="fill:none;fill-opacity:0.607843;stroke:none;stroke-width:0;stroke-dasharray:none;stroke-opacity:1"
     d="M 38.755084,404.66438 7.0925034,372.87912 38.825614,340.46365 l 31.73311,-32.41548 32.773986,31.94987 32.77398,31.94987 -32.12315,32.25086 c -17.667726,17.73797 -32.447756,32.25086 -32.844506,32.25086 -0.39675,0 -14.96952,-14.30336 -32.38395,-31.78525 z"
     id="path163" />
  <path
     style="fill:none;fill-opacity:0.607843;stroke:none;stroke-width:0;stroke-dasharray:none;stroke-opacity:1"
     d="m 66.750864,586.19588 c -1.8129,-2.23949 -13.71731,-15.31493 -26.45425,-29.05651 -12.73694,-13.74158 -25.54014,-27.65506 -28.45155,-30.91884 L 6.5515834,520.28638 21.001784,504.56464 c 7.94761,-8.64696 22.25852,-24.08071 31.80202,-34.29723 l 17.35182,-18.57549 4.16605,3.90538 c 10.70278,10.03308 58.292126,62.40217 58.292126,64.14682 0,1.92081 -16.50274,21.20519 -45.891336,53.6266 -8.01036,8.83699 -15.03929,16.25395 -15.61985,16.48212 -0.58057,0.22818 -2.53885,-1.41746 -4.35175,-3.65696 z"
     id="path164" />
  <path
     style="fill:none;fill-opacity:0.607843;stroke:none;stroke-width:1.89314;stroke-dasharray:none;stroke-opacity:1"
     d="m 59.870464,730.30603 c -11.66883,-12.02253 -44.17035,-47.0369 -49.26535,-53.07429 -2.5305806,-2.99866 -2.4275806,-3.1606 13.77398,-21.65589 8.97799,-10.24904 23.27312,-26.07531 31.76695,-35.16947 l 15.44333,-16.53484 11.41664,12.34338 c 37.412616,40.44956 51.029076,55.83977 50.689316,57.2924 -0.42675,1.82453 -32.14582,37.71643 -50.195216,56.79871 l -11.6625,12.32989 z"
     id="path165" />
</svg>
